<?xml version="1.0" encoding="UTF-8" standalone="no"?>
<!DOCTYPE svg PUBLIC "-//W3C//DTD SVG 20010904//EN"
              "http://www.w3.org/TR/2001/REC-SVG-20010904/DTD/svg10.dtd">

<svg xmlns="http://www.w3.org/2000/svg"
     width="40.3472in" height="23.4722in"
     viewBox="0 0 2905 1690">
  <path id="Major_Locations"
        fill="none" stroke="black" stroke-width="1"
        d="M 984.00,742.50
           C 984.00,742.50 891.75,465.00 891.75,465.00
             891.75,465.00 1209.75,508.25 1209.75,508.25
             1209.75,508.25 1190.25,296.00 1190.25,296.00
             1190.25,296.00 1585.25,501.00 1585.25,501.00
             1585.25,501.00 1705.00,355.25 1705.00,355.25
             1705.00,355.25 1485.00,733.00 1485.00,733.00
             1485.00,733.00 1632.75,782.75 1632.75,782.75
             1632.75,782.75 1806.50,712.75 1806.50,712.75
             1806.50,712.75 1572.00,1001.33 1572.00,1001.33
             1572.00,1001.33 1778.67,1063.33 1778.67,1063.33
             1778.67,1063.33 1768.67,1238.67 1768.67,1238.67
             1768.67,1238.67 1547.67,1171.67 1547.67,1171.67" />
</svg>
