<?xml version="1.0" encoding="UTF-8" standalone="no"?>
<!DOCTYPE svg PUBLIC "-//W3C//DTD SVG 20010904//EN"
              "http://www.w3.org/TR/2001/REC-SVG-20010904/DTD/svg10.dtd">

<svg xmlns="http://www.w3.org/2000/svg"
     width="40.3472in" height="23.4722in"
     viewBox="0 0 2905 1690">
  <path id="Field_Bosses"
        fill="none" stroke="black" stroke-width="1"
        d="M 1683.00,1290.67
           C 1683.00,1290.67 1271.67,1191.00 1271.67,1191.00
             1271.67,1191.00 1034.67,1389.67 1034.67,1389.67
             1034.67,1389.67 1048.33,647.33 1048.33,647.33
             1048.33,647.33 1076.33,428.00 1076.33,428.00
             1076.33,428.00 977.00,326.33 977.00,326.33
             977.00,326.33 1600.67,365.33 1600.67,365.33
             1600.67,365.33 1811.67,826.00 1811.67,826.00M 1119.50,512.50
           C 1119.50,512.50 1205.00,444.00 1205.00,444.00
             1205.00,444.00 1372.50,427.50 1372.50,427.50
             1372.50,427.50 1536.50,537.50 1536.50,537.50
             1536.50,537.50 1482.50,713.50 1482.50,713.50
             1482.50,713.50 1375.50,733.00 1375.50,733.00
             1375.50,733.00 1183.00,736.00 1183.00,736.00" />
</svg>
