<?xml version="1.0" encoding="UTF-8" standalone="no"?>
<!DOCTYPE svg PUBLIC "-//W3C//DTD SVG 20010904//EN"
              "http://www.w3.org/TR/2001/REC-SVG-20010904/DTD/svg10.dtd">

<svg xmlns="http://www.w3.org/2000/svg"
     width="40.3472in" height="23.4722in"
     viewBox="0 0 2905 1690">
  <path id="Scarabs"
        fill="none" stroke="black" stroke-width="1"
        d="M 1300.73,1171.09
           C 1300.73,1171.09 1204.73,1160.00 1204.73,1160.00
             1204.73,1160.00 1063.82,1136.18 1063.82,1136.18
             1063.82,1136.18 1017.82,1197.82 1017.82,1197.82
             1017.82,1197.82 861.82,1032.55 861.82,1032.55
             861.82,1032.55 910.00,955.45 910.00,955.45
             910.00,955.45 1190.00,854.55 1190.00,854.55
             1190.00,854.55 1779.50,441.00 1779.50,441.00
             1779.50,441.00 1530.75,825.25 1530.75,825.25
             1530.75,825.25 1510.75,933.00 1510.75,933.00
             1510.75,933.00 1916.25,1094.25 1916.25,1094.25
             1916.25,1094.25 1643.50,1221.75 1643.50,1221.75" />
</svg>
