<?xml version="1.0" encoding="UTF-8" standalone="no"?>
<!DOCTYPE svg PUBLIC "-//W3C//DTD SVG 20010904//EN"
              "http://www.w3.org/TR/2001/REC-SVG-20010904/DTD/svg10.dtd">

<svg xmlns="http://www.w3.org/2000/svg"
     width="40.3472in" height="23.4722in"
     viewBox="0 0 2905 1690">
  <path id="Field_Bosses"
        fill="none" stroke="black" stroke-width="1"
        d="M 1683.00,1290.67
           C 1683.00,1290.67 1048.33,647.33 1048.33,647.33
             1048.33,647.33 1311.00,595.67 1311.00,595.67
             1311.00,595.67 1076.33,428.00 1076.33,428.00
             1076.33,428.00 977.00,326.33 977.00,326.33
             977.00,326.33 1428.33,650.33 1428.33,650.33
             1428.33,650.33 1600.67,365.33 1600.67,365.33
             1600.67,365.33 1811.67,826.00 1811.67,826.00M 1086.00,895.33
           C 1086.00,895.33 1338.67,1294.67 1338.67,1294.67
             1338.67,1294.67 1045.33,1323.33 1045.33,1323.33
             1045.33,1323.33 1046.00,1277.33 1046.00,1277.33
             1046.00,1277.33 1021.33,1182.00 1021.33,1182.00
             1021.33,1182.00 916.67,1176.67 916.67,1176.67
             916.67,1176.67 861.33,1125.33 861.33,1125.33
             861.33,1125.33 858.00,1344.67 858.00,1344.67" />
</svg>
