<?xml version="1.0" encoding="UTF-8" standalone="no"?>
<!DOCTYPE svg PUBLIC "-//W3C//DTD SVG 20010904//EN"
              "http://www.w3.org/TR/2001/REC-SVG-20010904/DTD/svg10.dtd">

<svg xmlns="http://www.w3.org/2000/svg"
     width="40.3472in" height="23.4722in"
     viewBox="0 0 2905 1690">
  <path id="Spiritstreams"
        fill="none" stroke="black" stroke-width="1"
        d="M 1621.25,1204.50
           C 1621.25,1204.50 1505.50,1039.00 1505.50,1039.00
             1505.50,1039.00 1045.25,818.00 1045.25,818.00
             1045.25,818.00 868.00,829.00 868.00,829.00
             868.00,829.00 912.50,731.50 912.50,731.50
             912.50,731.50 842.50,547.00 842.50,547.00
             842.50,547.00 1147.75,732.25 1147.75,732.25
             1147.75,732.25 1176.75,651.50 1176.75,651.50
             1176.75,651.50 1324.25,632.25 1324.25,632.25
             1324.25,632.25 1299.50,576.50 1299.50,576.50
             1299.50,576.50 1341.75,482.25 1341.75,482.25
             1341.75,482.25 1323.75,841.75 1323.75,841.75
             1323.75,841.75 1604.50,677.00 1604.50,677.00
             1604.50,677.00 1633.00,581.25 1633.00,581.25
             1633.00,581.25 1732.75,508.00 1732.75,508.00
             1732.75,508.00 1764.00,590.25 1764.00,590.25
             1764.00,590.25 1884.50,641.75 1884.50,641.75" />
</svg>
