<?xml version="1.0" encoding="UTF-8" standalone="no"?>
<!DOCTYPE svg PUBLIC "-//W3C//DTD SVG 20010904//EN"
              "http://www.w3.org/TR/2001/REC-SVG-20010904/DTD/svg10.dtd">

<svg xmlns="http://www.w3.org/2000/svg"
     width="40.3472in" height="23.4722in"
     viewBox="0 0 2905 1690">
  <path id="Circle_Locations"
        fill="none" stroke="black" stroke-width="1"
        d="M 864.00,673.00
           C 864.00,673.00 1864.00,400.00 1864.00,400.00
             1864.00,400.00 881.00,354.00 881.00,354.00
             881.00,354.00 1307.00,1290.00 1307.00,1290.00
             1307.00,1290.00 961.00,1269.00 961.00,1269.00
             961.00,1269.00 1728.00,891.00 1728.00,891.00
             1728.00,891.00 1463.00,453.00 1463.00,453.00
             1463.00,453.00 1124.00,781.00 1124.00,781.00
             1124.00,781.00 1442.00,922.00 1442.00,922.00M 1133.00,1177.00
           C 1133.00,1177.00 1677.00,1148.00 1677.00,1148.00
             1677.00,1148.00 1231.00,1045.00 1231.00,1045.00M 1185.00,669.00" />
</svg>
