<?xml version="1.0" encoding="UTF-8" standalone="no"?>
<!DOCTYPE svg PUBLIC "-//W3C//DTD SVG 20010904//EN"
              "http://www.w3.org/TR/2001/REC-SVG-20010904/DTD/svg10.dtd">

<svg xmlns="http://www.w3.org/2000/svg"
     width="40.3472in" height="23.4722in"
     viewBox="0 0 2905 1690">
  <path id="Event_Locations"
        fill="none" stroke="black" stroke-width="1"
        d="M 1483.00,732.00
           C 1483.00,732.00 1181.00,290.00 1181.00,290.00
             1181.00,290.00 1635.00,791.00 1635.00,791.00
             1635.00,791.00 1046.00,934.00 1046.00,934.00
             1046.00,934.00 1718.00,367.00 1718.00,367.00
             1718.00,367.00 1785.00,1069.00 1785.00,1069.00M 1577.00,494.00
           C 1577.00,494.00 1181.00,1326.00 1181.00,1326.00
             1181.00,1326.00 1398.00,1164.00 1398.00,1164.00
             1398.00,1164.00 905.00,475.00 905.00,475.00
             905.00,475.00 1826.00,717.00 1826.00,717.00
             1826.00,717.00 1363.00,588.00 1363.00,588.00
             1363.00,588.00 1581.00,994.00 1581.00,994.00" />
</svg>
