<?xml version="1.0" encoding="UTF-8" standalone="no"?>
<!DOCTYPE svg PUBLIC "-//W3C//DTD SVG 20010904//EN"
              "http://www.w3.org/TR/2001/REC-SVG-20010904/DTD/svg10.dtd">

<svg xmlns="http://www.w3.org/2000/svg"
     width="40.3472in" height="23.4722in"
     viewBox="0 0 2905 1690">
  <path id="Field_Bosses"
        fill="none" stroke="black" stroke-width="1"
        d="M 1683.00,1290.67
           C 1683.00,1290.67 1271.67,1191.00 1271.67,1191.00
             1271.67,1191.00 1034.67,1389.67 1034.67,1389.67
             1034.67,1389.67 1428.33,650.33 1428.33,650.33
             1428.33,650.33 1600.67,365.33 1600.67,365.33
             1600.67,365.33 1811.67,826.00 1811.67,826.00M 1031.00,600.50
           C 1031.00,600.50 907.50,604.00 907.50,604.00
             907.50,604.00 836.50,426.00 836.50,426.00
             836.50,426.00 927.50,359.00 927.50,359.00
             927.50,359.00 1079.00,329.00 1079.00,329.00
             1079.00,329.00 1175.50,338.00 1175.50,338.00
             1175.50,338.00 1265.50,333.00 1265.50,333.00
             1265.50,333.00 1125.50,482.00 1125.50,482.00
             1125.50,482.00 1219.50,570.00 1219.50,570.00" />
</svg>
