<?xml version="1.0" encoding="UTF-8" standalone="no"?>
<!DOCTYPE svg PUBLIC "-//W3C//DTD SVG 20010904//EN"
              "http://www.w3.org/TR/2001/REC-SVG-20010904/DTD/svg10.dtd">

<svg xmlns="http://www.w3.org/2000/svg"
     width="40.3472in" height="23.4722in"
     viewBox="0 0 2905 1690">
  <path id="Field_Bosses"
        fill="none" stroke="black" stroke-width="1"
        d="M 1271.67,1191.00
           C 1271.67,1191.00 1034.67,1389.67 1034.67,1389.67
             1034.67,1389.67 1048.33,647.33 1048.33,647.33
             1048.33,647.33 1311.00,595.67 1311.00,595.67
             1311.00,595.67 1076.33,428.00 1076.33,428.00
             1076.33,428.00 977.00,326.33 977.00,326.33
             977.00,326.33 1428.33,650.33 1428.33,650.33
             1428.33,650.33 1600.67,365.33 1600.67,365.33
             1600.67,365.33 1811.67,826.00 1811.67,826.00M 1483.33,958.67
           C 1483.33,958.67 1536.67,1054.67 1536.67,1054.67
             1536.67,1054.67 1808.00,1018.00 1808.00,1018.00
             1808.00,1018.00 1735.33,1079.33 1735.33,1079.33
             1735.33,1079.33 1607.33,1257.33 1607.33,1257.33
             1607.33,1257.33 1838.00,1168.67 1838.00,1168.67" />
</svg>
