<?xml version="1.0" encoding="UTF-8" standalone="no"?>
<!DOCTYPE svg PUBLIC "-//W3C//DTD SVG 20010904//EN"
              "http://www.w3.org/TR/2001/REC-SVG-20010904/DTD/svg10.dtd">

<svg xmlns="http://www.w3.org/2000/svg"
     width="40.3472in" height="23.4722in"
     viewBox="0 0 2905 1690">
  <path id="Major_Locations"
        fill="none" stroke="black" stroke-width="1"
        d="M 1183.64,1322.00
           C 1183.64,1322.00 979.75,1104.25 979.75,1104.25
             979.75,1104.25 984.00,742.50 984.00,742.50
             984.00,742.50 1043.64,931.09 1043.64,931.09
             1043.64,931.09 891.75,465.00 891.75,465.00
             891.75,465.00 1209.75,508.25 1209.75,508.25
             1209.75,508.25 1190.25,296.00 1190.25,296.00
             1190.25,296.00 1585.25,501.00 1585.25,501.00
             1585.25,501.00 1705.00,355.25 1705.00,355.25
             1705.00,355.25 1485.00,733.00 1485.00,733.00
             1485.00,733.00 1632.75,782.75 1632.75,782.75
             1632.75,782.75 1806.50,712.75 1806.50,712.75M 1722.67,1255.33" />
</svg>
